<svg width="224" height="71" viewBox="0 0 224 71" fill="none" xmlns="http://www.w3.org/2000/svg">
<path fill-rule="evenodd" clip-rule="evenodd" d="M128.408 9.79371C128.45 9.80988 128.456 9.88811 128.426 9.96523C128.4 10.0313 128.169 10.1951 127.912 10.2986C127.666 10.4062 127.281 10.6246 127.068 10.7704C126.74 10.998 126.689 11.0671 126.689 11.409C126.69 11.6246 126.761 11.8163 126.824 11.8406C126.897 11.8689 126.947 11.9262 126.93 11.9702C126.909 12.0253 126.707 12.1751 126.469 12.3238C126.123 12.5323 125.957 12.5569 125.664 12.4437C125.402 12.3427 125.269 12.1899 125.171 11.9118C125.105 11.7091 125.081 11.4593 125.115 11.3712C125.149 11.2831 125.335 11.051 125.54 10.8641C125.729 10.6842 126.201 10.3978 126.569 10.2234C126.948 10.0531 127.484 9.8802 127.786 9.845C128.078 9.80576 128.351 9.78452 128.397 9.78967L128.408 9.79371ZM147.819 21.5244L148.773 21.829L148.178 23.3714L148.492 23.4927C148.754 23.5938 148.789 23.658 148.7 23.8894C148.594 24.1648 148.583 24.1608 146.918 23.5181L147.343 22.4164C147.577 21.8104 147.767 21.1622 147.782 20.9657C147.784 20.7131 147.832 20.6179 147.952 20.5882C148.072 20.5585 148.071 20.6848 147.819 21.5244ZM136.058 16.4165L135.378 18.1792L134.561 17.8639C134.121 17.6942 133.665 17.4421 133.548 17.3084C133.431 17.1747 133.329 16.9077 133.32 16.7141C133.308 16.4313 133.361 16.3252 133.591 16.1354C133.739 16.0024 133.993 15.8729 134.149 15.8442C134.304 15.8156 134.791 15.9274 136.058 16.4165ZM137.973 17.1301L138.889 17.5339C139.672 17.8742 139.827 17.9719 139.941 18.2691C140.032 18.4689 140.033 18.7476 139.961 18.9349C139.888 19.1222 139.701 19.3282 139.499 19.4149C139.204 19.5544 139.045 19.5308 137.264 18.9068L137.973 17.1301ZM124.246 17.5544C124.33 17.5867 124.365 17.7142 124.318 17.8354C124.271 17.9566 124.254 18.0638 124.285 18.0759C124.317 18.0881 124.545 18.0877 124.789 18.0804C125.047 18.0662 125.261 18.0728 125.272 18.0769C125.293 18.085 125.218 18.3093 125.112 18.5848C125.006 18.8602 124.941 19.0886 124.973 19.1008C125.004 19.1129 125.141 19.1023 125.277 19.0916C125.519 19.0583 125.517 19.0954 125.03 20.2621C124.593 21.3337 124.512 21.4799 124.222 21.6083C124.041 21.7031 123.758 21.7203 123.579 21.6515C123.376 21.5858 123.201 21.4168 123.118 21.1949C122.983 20.8897 123.015 20.7123 123.473 19.37C123.752 18.5536 123.982 17.8324 123.993 17.7732C123.997 17.6991 124.017 17.6179 124.048 17.5668C124.065 17.5228 124.162 17.5221 124.246 17.5544ZM112.228 13.2971L111.548 15.0598L110.731 14.7445C110.291 14.5748 109.835 14.3227 109.718 14.189C109.601 14.0553 109.499 13.7883 109.49 13.5947C109.479 13.3119 109.532 13.2058 109.751 13.0119C109.909 12.883 110.164 12.7534 110.319 12.7248C110.474 12.6962 110.95 12.8039 112.228 13.2971ZM114.143 14.0107L115.063 14.4035C115.842 14.7548 115.997 14.8525 116.111 15.1497C116.202 15.3495 116.203 15.6282 116.131 15.8155C116.059 16.0028 115.871 16.2088 115.669 16.2954C115.374 16.435 115.215 16.4114 113.434 15.7874L114.143 14.0107ZM100.311 10.6223C100.402 10.759 100.634 11.0003 100.835 11.1664C101.031 11.3434 101.259 11.4694 101.35 11.4537C101.458 11.4446 101.476 11.5319 101.405 11.7155C101.303 11.98 101.278 11.9829 99.7276 11.3847L99.9441 10.8859C100.152 10.4093 100.171 10.3913 100.311 10.6223ZM119.406 22.1425L118.726 23.9052L117.909 23.5899C117.469 23.4202 117.013 23.1681 116.896 23.0344C116.779 22.9007 116.677 22.6337 116.668 22.4401C116.657 22.1573 116.699 22.0471 116.929 21.8573C117.087 21.7284 117.341 21.5988 117.497 21.5702C117.652 21.5416 118.128 21.6493 119.406 22.1425ZM123.955 23.8597L125.249 24.4351C126.039 24.7904 126.835 25.2239 127.293 25.5652C127.707 25.8643 128.273 26.3613 128.555 26.66C128.833 26.9696 129.231 27.4652 129.444 27.7877C129.646 28.1061 129.977 28.7148 130.172 29.1445C130.361 29.5592 130.609 30.2879 130.71 30.7445C130.821 31.2051 130.929 31.9554 130.954 32.4208C130.979 32.8861 130.943 33.6952 130.872 34.2244C130.799 34.8168 130.562 35.7757 129.772 38.1668L128.043 37.4999L128.545 36.1998C128.842 35.4286 129.079 34.5961 129.151 34.13C129.22 33.7011 129.247 32.914 129.212 32.3815C129.165 31.6293 129.035 31.1235 128.614 30.1256C128.29 29.3425 127.878 28.6012 127.582 28.2464C127.313 27.9147 126.751 27.4066 126.341 27.0966C125.797 26.6969 125.263 26.4275 123.231 25.6434L123.955 23.8597ZM111.578 23.2482C111.676 23.3367 111.799 23.4855 111.847 23.5799C111.905 23.6783 112.145 25.0237 112.374 26.5806C112.608 28.1265 112.774 29.4435 112.738 29.5056C112.717 29.5607 112.59 29.7649 112.486 29.94C112.346 30.1773 112.318 30.3436 112.4 30.4762C112.464 30.5897 112.484 30.7242 112.459 30.7903C112.427 30.8413 112.449 31.0018 112.51 31.1263C112.584 31.307 112.518 31.5726 112.233 32.3107C111.902 33.1701 111.842 33.2611 111.715 33.1234C111.638 33.0429 111.327 31.3534 111.03 29.3782C110.723 27.3989 110.437 25.7696 110.386 25.7755C110.336 25.7813 108.987 26.8432 104.505 30.5058L105.573 30.9813C106.447 31.3689 106.66 31.5019 106.776 31.762C106.868 31.9618 106.86 32.1994 106.763 32.4528C106.626 32.8054 106.578 32.8373 105.522 32.8602L105.248 33.5393C104.989 34.2113 104.991 34.2374 105.244 34.4237C105.384 34.5284 105.576 34.7164 105.653 34.8601C105.793 35.0911 105.756 35.2163 104.28 38.9501C102.868 42.5446 102.777 42.8131 102.923 42.9329C103.015 43.0063 103.176 43.1823 103.289 43.327C103.464 43.5592 103.453 43.6815 102.975 45.2313L103.373 45.5112C103.732 45.764 103.768 45.8282 103.547 46.4011L103.334 46.0786C103.22 45.9078 102.993 45.4028 102.823 44.9701C102.657 44.5264 102.459 43.855 102.385 43.4848C102.305 43.0995 102.22 42.4465 102.203 42.0223C102.187 41.598 102.214 40.811 102.275 40.2777C102.382 39.4077 102.512 38.9769 104.851 32.7279L104.484 32.5864C104.275 32.5056 104.122 32.3707 104.121 32.2815C104.128 32.1702 104.096 32.1581 103.991 32.244C103.885 32.3299 103.611 32.2619 102.943 31.9661C102.17 31.6299 102.025 31.5362 101.901 31.235C101.82 31.0393 101.815 30.7715 101.883 30.5953C101.966 30.412 103.637 28.9811 106.387 26.7512C109.171 24.4964 110.892 23.1859 111.087 23.1474C111.253 23.1229 111.476 23.1706 111.578 23.2482ZM126.868 32.9962C127.03 33.0458 127.233 33.2379 127.332 33.4157C127.468 33.6577 127.475 33.8252 127.339 34.1778C127.22 34.4862 127.066 34.6673 126.845 34.7719C126.654 34.8626 126.37 34.8798 126.203 34.8151C125.999 34.7493 125.824 34.5803 125.731 34.3545C125.631 34.1135 125.645 33.8909 125.768 33.5714C125.9 33.2299 126.012 33.0959 126.264 33.0034C126.443 32.9457 126.722 32.9396 126.868 32.9962ZM125.618 36.7667C125.721 36.8442 125.858 37.0492 125.931 37.2038C126.03 37.4447 125.992 37.6702 125.347 39.4973L123.671 38.8505L124.002 37.9912C124.223 37.4183 124.416 37.0749 124.593 36.9281C124.743 36.8212 124.993 36.7026 125.148 36.674C125.304 36.6454 125.516 36.6892 125.618 36.7667ZM110.874 33.0266L110.725 33.4122C110.623 33.6766 110.524 33.7776 110.419 33.7372C110.325 33.7008 110.081 33.7081 109.875 33.7426C109.495 33.8237 109.476 33.8417 109.157 34.668C108.898 35.34 108.853 35.5505 108.962 35.643C109.033 35.7084 109.139 35.7749 109.202 35.7992C109.255 35.8194 109.428 35.5572 109.585 35.2127C109.738 34.8793 109.595 35.2799 109.276 36.1062C108.722 37.5124 108.654 37.6255 108.359 37.765C108.153 37.8627 107.91 37.87 107.69 37.7851C107.449 37.6921 107.305 37.5352 107.218 37.2612C107.104 36.9009 107.132 36.7977 107.855 34.9248C108.475 33.3163 108.645 32.9388 108.873 32.786C109.022 32.6792 109.249 32.5896 109.396 32.583C109.543 32.5764 109.937 32.6779 110.874 33.0266ZM112.341 34.7447C112.362 34.7527 112.309 34.922 112.228 35.1314C112.088 35.4949 112.058 35.5089 111.388 35.2502L111.847 34.9969C112.101 34.8673 112.326 34.7516 112.341 34.7447ZM123.586 39.0709L125.22 39.7015L124.827 40.689C124.491 41.5593 124.404 41.6904 124.11 41.8299C123.815 41.9694 123.631 41.9488 121.539 41.2557L122.068 44.7508C122.361 46.6739 122.58 48.2899 122.554 48.356C122.533 48.4111 122.402 48.6895 122.249 48.9598C121.999 49.4203 121.99 49.5055 122.161 49.875C122.279 50.1611 122.467 50.3602 122.741 50.4914C122.957 50.5873 123.148 50.6861 123.15 50.7122C123.156 50.7273 122.974 50.8852 122.743 51.0489C122.517 51.2277 122.187 51.3661 122.025 51.3797C121.807 51.384 121.654 51.3124 121.483 51.1324C121.301 50.9483 121.056 49.5879 120.397 45.3083C119.868 41.8133 119.595 39.6195 119.657 39.4282C119.725 39.2519 119.908 39.0569 120.1 38.9662C120.394 38.8267 120.564 38.8543 121.363 39.1244C122.056 39.3541 122.305 39.4882 122.326 39.6226C122.346 39.7571 122.377 39.7692 122.451 39.6711C122.508 39.6172 122.712 39.6198 122.921 39.7006C123.267 39.834 123.297 39.8201 123.437 39.4565L123.586 39.0709ZM126.917 40.3563L128.614 41.0111L128.465 41.3967C128.325 41.7603 128.327 41.7864 128.683 41.9238C128.882 42.0006 129.045 42.1395 129.041 42.2137C129.029 42.336 129.061 42.3481 129.166 42.2622C129.282 42.1803 129.557 42.2483 130.204 42.536C130.929 42.841 131.127 42.981 131.237 43.2259C131.316 43.3956 131.36 43.5642 131.343 43.6083C131.321 43.6634 131.162 43.6398 130.68 43.4539L130.361 44.2802C130.047 45.0955 130.032 45.1025 129.84 44.9144C129.735 44.8108 129.539 44.6969 129.39 44.6774C129.163 44.6406 129.117 44.6986 128.908 45.2385C128.696 45.7893 128.654 45.8364 128.434 45.7515C128.308 45.703 128.09 45.6441 127.941 45.6247C127.71 45.5989 127.664 45.6569 127.434 46.2518C127.294 46.6154 127.146 46.8747 127.117 46.8255C127.083 46.7873 126.865 46.7284 126.194 46.6593L125.96 47.2652C125.786 47.7169 125.693 47.833 125.615 47.7525C125.559 47.6801 125.35 47.5993 125.144 47.5706C124.819 47.5085 124.771 47.5404 124.635 47.893C124.499 48.2455 124.454 48.2664 124.123 48.1893C123.926 48.1385 123.754 48.0849 123.748 48.0698C123.727 48.0617 124.831 47.1335 128.662 44.0044L127.584 43.5249C126.637 43.1089 126.486 43.0002 126.362 42.699C126.244 42.4129 126.27 42.2204 126.566 41.36L126.917 40.3563ZM107.128 39.7708C107.231 39.8483 107.377 40.0312 107.445 40.1969C107.537 40.3967 107.519 40.6303 107.4 40.9388C107.268 41.2803 107.156 41.4143 106.883 41.4988C106.689 41.5634 106.425 41.5626 106.278 41.506C106.131 41.4494 105.941 41.2874 105.849 41.1507C105.712 40.9458 105.715 40.7823 105.876 40.3637C106.017 40.0001 106.15 39.811 106.322 39.7383C106.465 39.6796 106.665 39.63 106.761 39.6293C106.858 39.6286 107.026 39.6933 107.128 39.7708ZM113.459 45.2896L115.115 45.9283L114.736 46.9088C114.39 47.7752 114.309 47.9213 114.019 48.0498C113.842 48.1335 113.559 48.1507 113.377 48.093C113.178 48.0162 113.002 47.8472 112.915 47.6364C112.79 47.3352 112.823 47.1578 113.123 46.2863L113.459 45.2896ZM106.91 47.5092C107.013 47.5867 107.172 47.6734 107.256 47.7057C107.381 47.7542 107.339 47.9276 107.041 48.6356C106.718 49.4098 106.659 49.5008 106.509 49.3921C106.423 49.3337 106.186 49.1665 105.988 49.0265C105.785 48.8976 105.662 48.7488 105.708 48.6908C105.75 48.6438 105.836 48.639 105.905 48.6783C105.964 48.7136 106.116 48.6329 106.242 48.4918C106.358 48.3468 106.528 48.0325 106.596 47.793C106.705 47.4173 106.743 47.3813 106.91 47.5092ZM107.506 47.9291L108.261 48.2201L107.921 49.1015C107.636 49.8397 107.549 49.9708 107.445 49.8672C107.369 49.8128 107.168 49.7099 107.011 49.6493C106.781 49.5604 106.758 49.5262 106.92 49.4495C107.052 49.3867 107.163 49.1634 107.301 48.6474L107.506 47.9291ZM133.198 58.9816L134.067 59.3171C134.549 59.503 134.892 59.6735 134.833 59.7014C134.77 59.7403 134.59 59.7719 134.453 59.7825C134.191 59.8078 134.142 59.9029 133.418 61.6234C133.01 62.6179 132.611 63.464 132.548 63.5029C132.479 63.5268 132.481 63.4265 132.549 63.2502C132.613 63.085 132.66 62.8375 132.644 62.692C132.639 62.5506 132.531 62.3317 132.405 62.22C132.207 62.0169 132.203 61.9647 132.539 61.0944C132.73 60.5986 132.958 59.9144 133.05 59.5828L133.198 58.9816ZM114.705 56.7826L114.025 58.5453L113.627 58.3917C113.418 58.3109 113.15 58.1316 113.029 58.0089C112.912 57.8752 112.81 57.6082 112.801 57.4146C112.794 57.1208 112.832 57.0216 113.066 56.8208C113.224 56.6919 113.478 56.5623 113.634 56.5337C113.789 56.5051 114.093 56.5591 114.705 56.7826ZM86.0492 46.8643L87.61 47.4666L87.1849 48.5683C86.9015 49.3028 86.7583 49.8298 86.7554 50.1493C86.7539 50.4652 86.6107 50.9922 86.3174 51.7524C86.0793 52.3694 85.8376 52.871 85.7957 52.8548C85.7538 52.8387 85.5834 52.4692 85.4029 52.0324C85.2224 51.5957 85.0618 50.9515 85.0342 50.5864C85.0023 50.2323 85.045 49.6539 85.1349 49.2962C85.21 48.9455 85.4527 48.2543 85.6649 47.7666L86.0492 46.8643ZM109.41 55.8783L111.075 56.521L110.748 57.3694C110.565 57.8431 110.249 58.506 110.046 58.8453C109.843 59.1846 109.448 59.6778 109.168 59.9366C108.893 60.2106 108.331 60.5759 107.934 60.7642C107.525 60.9485 106.914 61.1302 106.576 61.1643C106.227 61.1943 105.646 61.1725 105.275 61.1052C104.903 61.0379 104.233 60.8424 102.976 60.3574L103.656 58.5946L104.852 59.0183C105.971 59.4247 106.084 59.4431 106.685 59.3206C107.08 59.2325 107.522 59.0233 107.849 58.7695C108.348 58.38 108.416 58.2669 108.898 57.1112L109.41 55.8783Z" fill="url(#paint0_linear_16_512)"/>
<path d="M135.368 18.1752L135.708 17.2938L136.048 16.4124L137.934 17.14L137.254 18.9028L135.368 18.1752Z" fill="url(#paint1_linear_16_512)"/>
<path d="M133.219 58.9897L140.064 41.2519L146.908 23.5141L148.584 24.1608L134.895 59.6364L133.219 58.9897Z" fill="url(#paint2_linear_16_512)"/>
<path d="M111.538 15.0558L111.879 14.1744L112.219 13.293L114.104 14.0206L113.424 15.7834L111.538 15.0558Z" fill="url(#paint3_linear_16_512)"/>
<path d="M86.0289 46.8562L92.8733 29.1184L99.7177 11.3806L101.289 11.9869L87.6002 47.4626L86.0289 46.8562Z" fill="url(#paint4_linear_16_512)"/>
<path d="M118.716 23.9012L119.056 23.0198L119.397 22.1384L123.901 23.8766L123.561 24.7579C123.361 25.2757 123.179 25.6231 123.116 25.5989C123.043 25.5706 121.672 29.0289 115.147 45.9404L113.471 45.2937L121.335 24.9117L118.716 23.9012Z" fill="url(#paint5_linear_16_512)"/>
<path d="M126.928 40.3603L127.481 38.9281L128.033 37.4958L129.709 38.1426L128.604 41.0071L126.928 40.3603Z" fill="url(#paint6_linear_16_512)"/>
<path d="M124.414 39.3902C123.922 39.2002 123.593 39.0228 123.618 38.9567C123.644 38.8906 124.007 38.9799 124.499 39.1699C124.991 39.3599 125.32 39.5373 125.294 39.6034C125.269 39.6695 124.906 39.5802 124.414 39.3902Z" fill="url(#paint7_linear_16_512)"/>
<path d="M111.898 50.9905C112.011 50.6669 112.122 50.2541 112.154 50.0768C112.202 49.7661 112.232 49.7521 112.965 50.0351L111.945 52.6792L112.553 52.661L111.065 56.517L109.389 55.8703L110.155 53.8872C110.635 52.6422 110.962 51.9202 111.025 51.9445C111.087 51.9687 111.159 51.9078 111.193 51.8196C111.227 51.7315 111.358 51.6426 111.484 51.628C111.654 51.5924 111.736 51.4723 111.898 50.9905Z" fill="url(#paint8_linear_16_512)"/>
<path d="M113.367 51.4561C113.478 51.0433 113.573 50.6114 113.59 50.5042C113.606 50.3709 113.677 50.3099 113.761 50.3423C113.876 50.3867 113.831 50.5972 113.175 52.2046L113.367 51.4561Z" fill="url(#paint9_linear_16_512)"/>
<path d="M119.391 59.894C119.527 59.5414 119.648 59.1327 119.657 58.9843L119.692 58.7066L124.124 60.4165L123.443 62.1792L119.148 60.522L119.391 59.894Z" fill="url(#paint10_linear_16_512)"/>
<path d="M96.8438 58.0037C96.8356 57.9626 96.9405 57.5347 97.0814 57.0448C97.2586 56.4297 97.3668 56.1803 97.4506 56.2127C97.524 56.241 97.4426 56.5766 97.2173 57.1605C97.026 57.6563 96.8562 58.0338 96.8438 58.0037Z" fill="url(#paint11_linear_16_512)"/>
<path d="M100.573 59.3796C100.547 59.2932 100.62 58.8533 100.748 58.3964C100.957 57.667 101.002 57.5829 101.159 57.6436C101.306 57.7002 101.286 57.8445 100.988 58.6157C100.759 59.2106 100.621 59.474 100.573 59.3796Z" fill="url(#paint12_linear_16_512)"/>
<path d="M100.985 59.2474C101.039 59.0781 101.171 58.6734 101.252 58.3377L101.4 57.7366L103.646 58.5906L102.962 60.3643L100.866 59.5559L100.985 59.2474Z" fill="url(#paint13_linear_16_512)"/>
<path d="M128.426 9.90219C128.461 9.75088 128.601 9.72924 129.081 9.82594C129.417 9.89211 130.088 10.0876 131.437 10.583L130.757 12.3458L129.762 11.9618C129.098 11.7058 128.615 11.5867 128.311 11.6045C128.057 11.6077 127.645 11.6767 127.408 11.7622C127.164 11.8327 126.897 11.869 126.834 11.8447C126.761 11.8164 126.69 11.6247 126.7 11.4132C126.689 11.0672 126.74 10.9981 127.068 10.7705C127.281 10.6247 127.666 10.4063 127.912 10.2987C128.169 10.1952 128.398 10.0054 128.426 9.90219Z" fill="url(#paint14_linear_16_512)"/>
<path d="M144.48 17.641L144.82 16.7596L145.16 15.8782L145.967 16.1895C146.417 16.3633 147.045 16.669 147.366 16.8685C147.686 17.068 148.142 17.4464 148.369 17.6987C148.607 17.9551 148.93 18.5226 149.11 18.9594C149.285 19.381 149.451 20.0403 149.483 20.3944C149.5 20.7554 149.46 21.3599 149.382 21.7478C149.305 22.1356 149.14 22.7177 149.017 23.0372C148.8 23.599 148.796 23.6101 148.168 23.3675L148.763 21.8251L147.799 21.5164L147.977 21.0537C148.13 20.6571 148.124 20.5788 147.961 20.5663C147.812 20.5468 147.718 20.3841 147.65 20.0289C147.581 19.7109 147.362 19.3101 147.089 18.9894C146.677 18.527 146.523 18.4292 144.48 17.641Z" fill="url(#paint15_linear_16_512)"/>
<path d="M104.011 6.70884C104.339 6.67071 104.903 6.6734 105.243 6.72856C105.587 6.7727 106.283 6.9653 107.712 7.50402L107.032 9.26678L105.835 8.84307C104.706 8.43259 104.593 8.4142 104.002 8.54079C103.607 8.62885 103.155 8.83406 102.839 9.09182C102.373 9.45643 102.259 9.62755 101.909 10.4417C101.688 10.9514 101.438 11.412 101.365 11.4468C101.272 11.4997 101.102 11.4089 100.847 11.1966C100.63 11.0115 100.381 10.751 100.285 10.6254C100.11 10.3932 100.096 10.4002 99.8643 10.9059C99.7243 11.2063 99.7586 11.055 99.9522 10.5221C100.129 10.0333 100.439 9.35539 100.642 9.01608C100.845 8.67676 101.221 8.20159 101.476 7.94565C101.737 7.70478 102.274 7.34239 102.676 7.14304C103.074 6.95472 103.669 6.75394 104.011 6.70884Z" fill="url(#paint16_linear_16_512)"/>
<path d="M120.65 14.5216L120.99 13.6402L121.33 12.7588L122.147 13.0741C122.587 13.2439 123.216 13.5496 123.536 13.7491C123.856 13.9486 124.312 14.327 124.539 14.5793C124.777 14.8357 125.109 15.3812 125.277 15.7878C125.455 16.1985 125.611 16.8537 125.647 17.2599C125.673 17.6621 125.634 18.2295 125.58 18.5251C125.484 18.931 125.422 19.0591 125.267 19.0877C125.158 19.1215 125.036 19.1252 124.994 19.109C124.942 19.0888 124.995 18.8563 125.101 18.5809C125.208 18.3054 125.282 18.0811 125.272 18.077C125.251 18.0689 125.037 18.0623 124.789 18.0806C124.535 18.0838 124.306 18.0842 124.275 18.072C124.243 18.0599 124.261 17.9527 124.307 17.8315C124.367 17.6772 124.325 17.5979 124.181 17.5674C124.04 17.5258 123.928 17.3179 123.839 16.9547C123.753 16.6175 123.532 16.1907 123.259 15.87C122.837 15.4035 122.693 15.3098 120.65 14.5216Z" fill="url(#paint17_linear_16_512)"/>
<path d="M112.444 29.9872C112.539 29.834 112.624 29.6769 112.641 29.6328L112.645 29.6218C112.673 29.5818 112.738 29.5689 112.801 29.5932C112.874 29.6215 113.07 30.7982 113.262 32.2016C113.459 33.6572 113.554 34.9089 113.49 35.0741C113.437 35.2434 113.253 35.4384 113.091 35.5151C112.929 35.5918 112.622 35.6381 112.417 35.6094C112.048 35.5682 112.052 35.5572 112.334 34.7939L112.335 34.7929L111.842 35.008C111.365 35.2162 111.294 35.214 109.764 34.6238L109.53 35.2297C109.403 35.5603 109.255 35.8195 109.192 35.7953C109.129 35.771 109.022 35.7045 108.951 35.6391C108.843 35.5466 108.888 35.3361 109.147 34.6641C109.466 33.8378 109.485 33.8198 109.865 33.7387C110.081 33.7083 110.325 33.701 110.409 33.7333C110.513 33.7737 110.613 33.6727 110.715 33.4083C110.855 33.0448 110.884 33.0308 111.23 33.1642C111.492 33.2653 111.589 33.2645 111.574 33.1452C111.55 33.0218 111.585 33.0229 111.7 33.1305C111.832 33.2572 111.883 33.1882 112.223 32.3068C112.518 31.5727 112.574 31.3031 112.499 31.1224C112.439 30.9979 112.423 30.8525 112.448 30.7864C112.474 30.7203 112.454 30.5858 112.389 30.4723C112.325 30.3588 112.346 30.1774 112.444 29.9872Z" fill="url(#paint18_linear_16_512)"/>
<path d="M106.055 32.8509C106.488 32.8532 106.631 32.7945 106.697 32.5921C106.748 32.4599 106.811 32.3578 106.843 32.37C106.874 32.3821 106.536 33.2896 106.1 34.3872C105.661 35.4959 105.41 36.0828 105.538 35.6891C105.753 35.038 105.753 34.9748 105.52 34.7074C105.376 34.5505 105.196 34.3926 105.112 34.3602C104.986 34.3117 105.014 34.1454 105.508 32.8674L106.055 32.8509Z" fill="url(#paint19_linear_16_512)"/>
<path d="M130.123 45.0236C130.091 45.0115 130.206 44.6509 130.383 44.2253L130.68 43.454L131.003 43.6164C131.283 43.7627 131.312 43.8119 131.177 44.0381C131.097 44.1843 130.843 44.4663 130.609 44.6671C130.371 44.879 130.154 45.0358 130.123 45.0236Z" fill="url(#paint20_linear_16_512)"/>
<path d="M128.873 45.2375C129.052 44.7116 129.107 44.6316 129.312 44.6603C129.436 44.6827 129.624 44.7554 129.727 44.833C129.834 44.8995 129.938 45.003 129.953 45.0592C129.982 45.1085 128.487 46.3925 123.257 50.6525L122.834 50.5018C122.599 50.4239 122.335 50.2336 122.238 50.0819C122.135 49.9412 122.046 49.7043 122.032 49.585C122.033 49.4586 122.141 49.1461 122.285 48.8978C122.501 48.5255 122.569 48.4755 122.645 48.6192C122.718 48.7738 122.794 48.765 123.036 48.6053C123.206 48.5065 123.407 48.3306 123.476 48.2436C123.555 48.1345 123.771 48.1041 124.054 48.1501C124.471 48.2225 124.516 48.2016 124.643 47.8711C124.766 47.5516 124.815 47.5196 125.144 47.5707C125.345 47.6105 125.555 47.6913 125.616 47.7526C125.689 47.8441 125.786 47.7171 126.194 46.6594L126.62 46.7098C126.861 46.7396 127.083 46.7874 127.112 46.8366C127.146 46.8748 127.294 46.6156 127.434 46.252C127.664 45.6571 127.71 45.599 127.937 45.6358C128.086 45.6553 128.304 45.7141 128.429 45.7626C128.654 45.8365 128.692 45.8005 128.873 45.2375Z" fill="url(#paint21_linear_16_512)"/>
<path d="M102.919 42.944C102.773 42.8243 102.839 42.6219 103.593 40.6979C104.246 39.0384 104.377 38.76 104.21 39.3792C104.086 39.825 103.963 40.5496 103.94 40.9837C103.902 41.4248 103.928 42.1689 103.999 42.6394C104.071 43.1099 104.335 43.9841 104.609 44.5835C104.937 45.3556 105.283 45.8941 105.761 46.433C106.133 46.8422 106.483 47.2433 106.561 47.3238C106.632 47.3891 106.635 47.6308 106.579 47.8372C106.509 48.0506 106.358 48.3469 106.232 48.4879C106.105 48.6289 105.968 48.7027 105.929 48.6495C105.874 48.6032 105.793 48.5969 105.75 48.6439C105.693 48.6979 105.528 48.6593 105.383 48.5656C105.243 48.4609 104.921 48.1722 104.673 47.9117C104.429 47.6403 104.252 47.382 104.277 47.3159C104.298 47.2609 104.246 47.1775 104.162 47.1451C104.068 47.1088 103.893 46.9398 103.763 46.7759C103.582 46.5287 103.545 46.3752 103.653 46.1259C103.768 45.8284 103.743 45.7681 102.975 45.2314L103.233 44.4069C103.453 43.6816 103.464 43.5593 103.289 43.3272C103.176 43.1824 103.015 43.0065 102.919 42.944Z" fill="url(#paint22_linear_16_512)"/>
<path d="M106.88 49.4595C106.674 49.5572 106.678 49.483 106.986 48.7158C107.182 48.209 107.36 47.8726 107.423 47.8969C107.475 47.9171 107.44 48.2579 107.323 48.6556C107.156 49.2117 107.063 49.3909 106.88 49.4595Z" fill="url(#paint23_linear_16_512)"/>
<path d="M107.581 49.983L107.921 49.1016L108.261 48.2203L109.937 48.867L109.257 50.6298L107.581 49.983Z" fill="url(#paint24_linear_16_512)"/>
<path d="M113.761 52.3679L114.116 51.4795L114.471 50.5912L115.376 50.991C116.17 51.3353 116.31 51.44 116.438 51.7301C116.515 51.9369 116.531 52.2087 116.458 52.396C116.382 52.5943 116.188 52.7853 115.992 52.8869C115.702 53.0154 115.538 53.0029 113.761 52.3679Z" fill="url(#paint25_linear_16_512)"/>
<path d="M133.487 61.5064C134.172 59.8259 134.176 59.8149 134.493 59.7727C134.659 59.7482 134.816 59.7456 134.837 59.7537C134.863 59.7508 134.644 60.2866 134.362 60.9245C134.079 61.5624 133.673 62.3042 133.464 62.5652C133.25 62.8374 133.01 63.0863 132.936 63.1212C132.858 63.1671 133.073 62.516 133.486 61.5104L133.487 61.5064Z" fill="url(#paint26_linear_16_512)"/>
<path d="M131.736 61.8351C132.239 61.4345 132.358 61.2524 132.655 60.5443C132.924 59.9076 132.915 59.9322 132.627 60.7623L132.588 60.873C132.199 61.9759 132.192 62.024 132.405 62.2202C132.516 62.3388 132.628 62.5467 132.644 62.6922C132.65 62.8336 132.609 63.0961 132.545 63.2614C132.46 63.4817 132.224 63.6565 131.728 63.8827C131.345 64.064 130.748 64.2387 130.406 64.2838C130.057 64.3139 129.471 64.3031 129.1 64.2358C128.729 64.1685 128.062 63.962 126.805 63.4769L127.486 61.7141L128.678 62.1489C129.807 62.5593 129.91 62.5737 130.526 62.4442C130.961 62.3462 131.348 62.1538 131.736 61.8351Z" fill="url(#paint27_linear_16_512)"/>
<path d="M114.025 58.5455L114.365 57.6641L114.705 56.7827L115.543 57.1061L114.863 58.8688L114.025 58.5455Z" fill="url(#paint28_linear_16_512)"/>
<path d="M85.5397 48.0602C85.4125 48.3275 85.4596 48.1432 85.6466 47.6584C85.8337 47.1736 85.9397 46.9614 85.8798 47.1788C85.8158 47.4072 85.6627 47.8039 85.5397 48.0602Z" fill="url(#paint29_linear_16_512)"/>
<path d="M85.8521 52.9273L86.3109 51.8006L86.7697 50.6739L86.9457 51.1849C87.043 51.4629 87.2929 51.8758 87.508 52.098C87.8129 52.4308 88.0997 52.5921 90.0376 53.3399L89.3574 55.1027L88.5404 54.7874C88.0961 54.6286 87.4889 54.331 87.1958 54.1547C86.8966 53.9633 86.4785 53.6121 85.8521 52.9273Z" fill="url(#paint30_linear_16_512)"/>
<path d="M130.757 12.3457L131.097 11.4643L131.437 10.583L145.16 15.8782L144.48 17.641L130.757 12.3457Z" fill="url(#paint31_linear_16_512)"/>
<path d="M107.032 9.26673L107.372 8.38535L107.712 7.50397L121.33 12.7588L120.65 14.5215L107.032 9.26673Z" fill="url(#paint32_linear_16_512)"/>
<path d="M89.4189 37.9753C87.5124 42.8849 89.0451 38.8816 92.8201 29.0983C96.5952 19.315 98.1573 15.2977 96.2845 20.1824C94.4222 25.0711 91.3358 33.0697 89.4189 37.9753Z" fill="url(#paint33_linear_16_512)"/>
<path d="M109.246 50.6257L109.586 49.7443L109.926 48.8629L112.231 49.7522L112.168 50.0699C112.121 50.2542 112.01 50.667 111.897 50.9906C111.735 51.4724 111.653 51.5925 111.472 51.624C111.357 51.6427 111.226 51.7316 111.192 51.8197C111.158 51.9078 111.087 51.9688 111.024 51.9445C110.961 51.9203 110.966 51.7829 111.025 51.6287C111.132 51.3533 111.121 51.3492 109.246 50.6257Z" fill="url(#paint34_linear_16_512)"/>
<path d="M111.944 52.6793L112.454 51.3572L112.964 50.0351L113.278 50.1564C113.446 50.2211 113.601 50.3188 113.605 50.371C113.615 50.4382 113.514 50.855 113.397 51.3159C113.194 52.0603 113.153 52.1334 112.986 52.0687C112.86 52.0202 112.759 52.0951 112.644 52.3294C112.54 52.5678 112.406 52.6676 111.944 52.6793Z" fill="url(#paint35_linear_16_512)"/>
<path d="M113.489 52.2627C113.227 52.1617 113.231 52.1507 113.567 51.2803C113.903 50.4099 113.907 50.3989 114.169 50.5C114.431 50.601 114.426 50.6121 114.091 51.4824C113.755 52.3528 113.75 52.3638 113.489 52.2627Z" fill="url(#paint36_linear_16_512)"/>
<path d="M114.853 58.8647L115.193 57.9834L115.533 57.102L117.628 57.9104C119.712 58.7148 119.723 58.7188 119.682 58.9814C119.658 59.1368 119.526 59.5415 119.148 60.522L114.853 58.8647Z" fill="url(#paint37_linear_16_512)"/>
<path d="M123.442 62.1793L123.783 61.2979L124.123 60.4166L127.475 61.71L126.795 63.4728L123.442 62.1793Z" fill="url(#paint38_linear_16_512)"/>
<path d="M89.3467 55.0986L89.6868 54.2172L90.0269 53.3358L97.3074 56.1451L97.1597 56.7463C97.0783 57.082 96.9672 57.4948 96.7844 57.9685L89.3467 55.0986Z" fill="url(#paint39_linear_16_512)"/>
<path d="M96.8891 58.0089L97.2292 57.1276L97.5693 56.2462L101.026 57.5801L100.865 57.9987C100.79 58.2231 100.669 58.6319 100.503 59.4035L96.8891 58.0089Z" fill="url(#paint40_linear_16_512)"/>
<path d="M100.765 59.5045C100.702 59.4803 100.811 59.1046 101.019 58.5647C101.349 57.7425 101.372 57.7135 101.286 58.1865C101.221 58.4781 101.106 58.9019 101.017 59.1333C100.942 59.3577 100.828 59.5288 100.765 59.5045Z" fill="url(#paint41_linear_16_512)"/>
<path d="M217.008 30.5341V33.9274H222.592V37.0818H217.008V40.7619H223.323V44.0358H212.839V27.2603H223.323V30.5341H217.008Z" fill="white"/>
<path d="M200.828 27.2603V37.1978C200.828 38.1916 201.073 38.9566 201.565 39.4929C202.056 40.0292 202.777 40.2974 203.728 40.2974C204.679 40.2974 205.408 40.0292 205.916 39.4929C206.423 38.9566 206.676 38.1916 206.676 37.1978V27.2603H210.742V37.1741C210.742 38.6569 210.425 39.9109 209.791 40.9362C209.157 41.9615 208.301 42.7344 207.223 43.255C206.161 43.7755 204.972 44.0358 203.657 44.0358C202.341 44.0358 201.161 43.7834 200.114 43.2786C199.084 42.7581 198.268 41.9852 197.666 40.9599C197.063 39.9188 196.762 38.6569 196.762 37.1741V27.2603H200.828Z" fill="white"/>
<path d="M190.211 40.8814H195.364V44.0358H186.277V27.2603H190.211V40.8814Z" fill="white"/>
<path d="M179.581 41.0726H173.355L172.357 44.0358H168.104L174.139 27.2603H178.844L184.88 44.0358H180.579L179.581 41.0726ZM178.535 37.9182L176.468 31.7767L174.425 37.9182H178.535Z" fill="white"/>
<path d="M168.104 27.2603L161.993 44.0358H156.741L150.63 27.2603H155.096L159.367 39.9255L163.662 27.2603H168.104Z" fill="white"/>
<path d="M82.9712 27.4817V30.7785H78.4952V44.375H74.3802V30.7785H69.9042V27.4817H82.9712Z" fill="#C1C592"/>
<path d="M63.7349 44.375L60.2214 37.9979H59.2348V44.375H55.1198V27.4817H62.0263C63.3578 27.4817 64.4889 27.7143 65.4194 28.1796C66.3659 28.6448 67.0718 29.2865 67.5371 30.1047C68.0023 30.9069 68.2349 31.8053 68.2349 32.8C68.2349 33.923 67.9141 34.9257 67.2723 35.808C66.6467 36.6904 65.7162 37.3161 64.4809 37.6851L68.3793 44.375H63.7349ZM59.2348 35.0861H61.7856C62.5396 35.0861 63.1012 34.9016 63.4701 34.5326C63.8552 34.1636 64.0477 33.6422 64.0477 32.9684C64.0477 32.3267 63.8552 31.8213 63.4701 31.4523C63.1012 31.0833 62.5396 30.8989 61.7856 30.8989H59.2348V35.0861Z" fill="#C1C592"/>
<path d="M47.893 41.391H41.5881L40.5774 44.375H36.2698L42.3822 27.4817H47.147L53.2594 44.375H48.9037L47.893 41.391ZM46.8342 38.2145L44.7406 32.0299L42.671 38.2145H46.8342Z" fill="#C1C592"/>
<path d="M34.418 27.4817V44.375H30.303V34.2438L26.5249 44.375H23.204L19.4018 34.2198V44.375H15.2867V27.4817H20.1478L24.8885 39.1771L29.5811 27.4817H34.418Z" fill="#C1C592"/>
<path d="M6.59368 44.5436C5.35837 44.5436 4.2514 44.3431 3.27278 43.942C2.29415 43.5409 1.50804 42.9473 0.914452 42.1612C0.336904 41.3751 0.0320861 40.4286 0 39.3216H4.37975C4.44392 39.9473 4.6605 40.4286 5.02949 40.7655C5.39848 41.0863 5.87977 41.2468 6.47336 41.2468C7.083 41.2468 7.56429 41.1104 7.91723 40.8377C8.27018 40.5489 8.44665 40.1558 8.44665 39.6585C8.44665 39.2414 8.30227 38.8965 8.01349 38.6237C7.74076 38.351 7.39583 38.1264 6.97872 37.9499C6.57764 37.7735 6.00009 37.5729 5.24607 37.3483C4.15514 37.0114 3.26476 36.6745 2.57491 36.3376C1.88506 36.0007 1.29146 35.5034 0.79413 34.8456C0.296796 34.1878 0.0481291 33.3295 0.0481291 32.2707C0.0481291 30.6985 0.617656 29.4712 1.75671 28.5888C2.89577 27.6904 4.37975 27.2412 6.20865 27.2412C8.06964 27.2412 9.56966 27.6904 10.7087 28.5888C11.8478 29.4712 12.4574 30.7065 12.5376 32.2948H8.08568C8.0536 31.7493 7.85306 31.3242 7.48407 31.0193C7.11508 30.6985 6.64181 30.5381 6.06426 30.5381C5.56693 30.5381 5.16585 30.6744 4.86104 30.9471C4.55622 31.2038 4.40381 31.5808 4.40381 32.0782C4.40381 32.6236 4.6605 33.0488 5.17387 33.3536C5.68725 33.6584 6.4894 33.9873 7.58033 34.3402C8.67126 34.7092 9.55362 35.0622 10.2274 35.3991C10.9173 35.736 11.5109 36.2253 12.0082 36.867C12.5055 37.5087 12.7542 38.335 12.7542 39.3457C12.7542 40.3083 12.5055 41.1826 12.0082 41.9687C11.5269 42.7548 10.821 43.3805 9.89052 43.8457C8.96003 44.311 7.86108 44.5436 6.59368 44.5436Z" fill="#C1C592"/>
<defs>
<linearGradient id="paint0_linear_16_512" x1="110.216" y1="2.77403" x2="145.657" y2="26.2473" gradientUnits="userSpaceOnUse">
<stop stop-color="#C1C592"/>
<stop offset="1" stop-color="white"/>
</linearGradient>
<linearGradient id="paint1_linear_16_512" x1="108.998" y1="5.97468" x2="143.995" y2="29.832" gradientUnits="userSpaceOnUse">
<stop stop-color="#C1C592"/>
<stop offset="1" stop-color="white"/>
</linearGradient>
<linearGradient id="paint2_linear_16_512" x1="108.998" y1="5.97468" x2="143.995" y2="29.832" gradientUnits="userSpaceOnUse">
<stop stop-color="#C1C592"/>
<stop offset="1" stop-color="white"/>
</linearGradient>
<linearGradient id="paint3_linear_16_512" x1="108.998" y1="5.97468" x2="143.995" y2="29.832" gradientUnits="userSpaceOnUse">
<stop stop-color="#C1C592"/>
<stop offset="1" stop-color="white"/>
</linearGradient>
<linearGradient id="paint4_linear_16_512" x1="108.998" y1="5.97468" x2="143.995" y2="29.832" gradientUnits="userSpaceOnUse">
<stop stop-color="#C1C592"/>
<stop offset="1" stop-color="white"/>
</linearGradient>
<linearGradient id="paint5_linear_16_512" x1="108.998" y1="5.97468" x2="143.995" y2="29.832" gradientUnits="userSpaceOnUse">
<stop stop-color="#C1C592"/>
<stop offset="1" stop-color="white"/>
</linearGradient>
<linearGradient id="paint6_linear_16_512" x1="108.998" y1="5.97468" x2="143.995" y2="29.832" gradientUnits="userSpaceOnUse">
<stop stop-color="#C1C592"/>
<stop offset="1" stop-color="white"/>
</linearGradient>
<linearGradient id="paint7_linear_16_512" x1="108.998" y1="5.97468" x2="143.995" y2="29.832" gradientUnits="userSpaceOnUse">
<stop stop-color="#C1C592"/>
<stop offset="1" stop-color="white"/>
</linearGradient>
<linearGradient id="paint8_linear_16_512" x1="108.998" y1="5.97468" x2="143.995" y2="29.832" gradientUnits="userSpaceOnUse">
<stop stop-color="#C1C592"/>
<stop offset="1" stop-color="white"/>
</linearGradient>
<linearGradient id="paint9_linear_16_512" x1="108.998" y1="5.97468" x2="143.995" y2="29.832" gradientUnits="userSpaceOnUse">
<stop stop-color="#C1C592"/>
<stop offset="1" stop-color="white"/>
</linearGradient>
<linearGradient id="paint10_linear_16_512" x1="108.998" y1="5.97468" x2="143.995" y2="29.832" gradientUnits="userSpaceOnUse">
<stop stop-color="#C1C592"/>
<stop offset="1" stop-color="white"/>
</linearGradient>
<linearGradient id="paint11_linear_16_512" x1="108.998" y1="5.97468" x2="143.995" y2="29.832" gradientUnits="userSpaceOnUse">
<stop stop-color="#C1C592"/>
<stop offset="1" stop-color="white"/>
</linearGradient>
<linearGradient id="paint12_linear_16_512" x1="108.998" y1="5.97468" x2="143.995" y2="29.832" gradientUnits="userSpaceOnUse">
<stop stop-color="#C1C592"/>
<stop offset="1" stop-color="white"/>
</linearGradient>
<linearGradient id="paint13_linear_16_512" x1="108.998" y1="5.97468" x2="143.995" y2="29.832" gradientUnits="userSpaceOnUse">
<stop stop-color="#C1C592"/>
<stop offset="1" stop-color="white"/>
</linearGradient>
<linearGradient id="paint14_linear_16_512" x1="110.284" y1="2.42076" x2="145.802" y2="25.8902" gradientUnits="userSpaceOnUse">
<stop stop-color="#C1C592"/>
<stop offset="1" stop-color="white"/>
</linearGradient>
<linearGradient id="paint15_linear_16_512" x1="110.284" y1="2.42076" x2="145.802" y2="25.8902" gradientUnits="userSpaceOnUse">
<stop stop-color="#C1C592"/>
<stop offset="1" stop-color="white"/>
</linearGradient>
<linearGradient id="paint16_linear_16_512" x1="110.284" y1="2.42076" x2="145.802" y2="25.8902" gradientUnits="userSpaceOnUse">
<stop stop-color="#C1C592"/>
<stop offset="1" stop-color="white"/>
</linearGradient>
<linearGradient id="paint17_linear_16_512" x1="110.284" y1="2.42076" x2="145.802" y2="25.8902" gradientUnits="userSpaceOnUse">
<stop stop-color="#C1C592"/>
<stop offset="1" stop-color="white"/>
</linearGradient>
<linearGradient id="paint18_linear_16_512" x1="110.284" y1="2.42076" x2="145.802" y2="25.8902" gradientUnits="userSpaceOnUse">
<stop stop-color="#C1C592"/>
<stop offset="1" stop-color="white"/>
</linearGradient>
<linearGradient id="paint19_linear_16_512" x1="110.284" y1="2.42076" x2="145.802" y2="25.8902" gradientUnits="userSpaceOnUse">
<stop stop-color="#C1C592"/>
<stop offset="1" stop-color="white"/>
</linearGradient>
<linearGradient id="paint20_linear_16_512" x1="110.284" y1="2.42076" x2="145.802" y2="25.8902" gradientUnits="userSpaceOnUse">
<stop stop-color="#C1C592"/>
<stop offset="1" stop-color="white"/>
</linearGradient>
<linearGradient id="paint21_linear_16_512" x1="110.284" y1="2.42076" x2="145.802" y2="25.8902" gradientUnits="userSpaceOnUse">
<stop stop-color="#C1C592"/>
<stop offset="1" stop-color="white"/>
</linearGradient>
<linearGradient id="paint22_linear_16_512" x1="110.284" y1="2.42076" x2="145.802" y2="25.8902" gradientUnits="userSpaceOnUse">
<stop stop-color="#C1C592"/>
<stop offset="1" stop-color="white"/>
</linearGradient>
<linearGradient id="paint23_linear_16_512" x1="110.284" y1="2.42076" x2="145.802" y2="25.8902" gradientUnits="userSpaceOnUse">
<stop stop-color="#C1C592"/>
<stop offset="1" stop-color="white"/>
</linearGradient>
<linearGradient id="paint24_linear_16_512" x1="110.284" y1="2.42076" x2="145.802" y2="25.8902" gradientUnits="userSpaceOnUse">
<stop stop-color="#C1C592"/>
<stop offset="1" stop-color="white"/>
</linearGradient>
<linearGradient id="paint25_linear_16_512" x1="110.284" y1="2.42076" x2="145.802" y2="25.8902" gradientUnits="userSpaceOnUse">
<stop stop-color="#C1C592"/>
<stop offset="1" stop-color="white"/>
</linearGradient>
<linearGradient id="paint26_linear_16_512" x1="110.284" y1="2.42076" x2="145.802" y2="25.8902" gradientUnits="userSpaceOnUse">
<stop stop-color="#C1C592"/>
<stop offset="1" stop-color="white"/>
</linearGradient>
<linearGradient id="paint27_linear_16_512" x1="110.284" y1="2.42076" x2="145.802" y2="25.8902" gradientUnits="userSpaceOnUse">
<stop stop-color="#C1C592"/>
<stop offset="1" stop-color="white"/>
</linearGradient>
<linearGradient id="paint28_linear_16_512" x1="110.284" y1="2.42076" x2="145.802" y2="25.8902" gradientUnits="userSpaceOnUse">
<stop stop-color="#C1C592"/>
<stop offset="1" stop-color="white"/>
</linearGradient>
<linearGradient id="paint29_linear_16_512" x1="110.284" y1="2.42076" x2="145.802" y2="25.8902" gradientUnits="userSpaceOnUse">
<stop stop-color="#C1C592"/>
<stop offset="1" stop-color="white"/>
</linearGradient>
<linearGradient id="paint30_linear_16_512" x1="110.284" y1="2.42076" x2="145.802" y2="25.8902" gradientUnits="userSpaceOnUse">
<stop stop-color="#C1C592"/>
<stop offset="1" stop-color="white"/>
</linearGradient>
<linearGradient id="paint31_linear_16_512" x1="109.542" y1="2.13442" x2="141.365" y2="21.9954" gradientUnits="userSpaceOnUse">
<stop stop-color="#C1C592"/>
<stop offset="1" stop-color="white"/>
</linearGradient>
<linearGradient id="paint32_linear_16_512" x1="109.542" y1="2.13442" x2="141.365" y2="21.9954" gradientUnits="userSpaceOnUse">
<stop stop-color="#C1C592"/>
<stop offset="1" stop-color="white"/>
</linearGradient>
<linearGradient id="paint33_linear_16_512" x1="109.542" y1="2.13442" x2="141.365" y2="21.9954" gradientUnits="userSpaceOnUse">
<stop stop-color="#C1C592"/>
<stop offset="1" stop-color="white"/>
</linearGradient>
<linearGradient id="paint34_linear_16_512" x1="109.542" y1="2.13442" x2="141.365" y2="21.9954" gradientUnits="userSpaceOnUse">
<stop stop-color="#C1C592"/>
<stop offset="1" stop-color="white"/>
</linearGradient>
<linearGradient id="paint35_linear_16_512" x1="109.542" y1="2.13442" x2="141.365" y2="21.9954" gradientUnits="userSpaceOnUse">
<stop stop-color="#C1C592"/>
<stop offset="1" stop-color="white"/>
</linearGradient>
<linearGradient id="paint36_linear_16_512" x1="109.542" y1="2.13442" x2="141.365" y2="21.9954" gradientUnits="userSpaceOnUse">
<stop stop-color="#C1C592"/>
<stop offset="1" stop-color="white"/>
</linearGradient>
<linearGradient id="paint37_linear_16_512" x1="109.542" y1="2.13442" x2="141.365" y2="21.9954" gradientUnits="userSpaceOnUse">
<stop stop-color="#C1C592"/>
<stop offset="1" stop-color="white"/>
</linearGradient>
<linearGradient id="paint38_linear_16_512" x1="109.542" y1="2.13442" x2="141.365" y2="21.9954" gradientUnits="userSpaceOnUse">
<stop stop-color="#C1C592"/>
<stop offset="1" stop-color="white"/>
</linearGradient>
<linearGradient id="paint39_linear_16_512" x1="109.542" y1="2.13442" x2="141.365" y2="21.9954" gradientUnits="userSpaceOnUse">
<stop stop-color="#C1C592"/>
<stop offset="1" stop-color="white"/>
</linearGradient>
<linearGradient id="paint40_linear_16_512" x1="109.542" y1="2.13442" x2="141.365" y2="21.9954" gradientUnits="userSpaceOnUse">
<stop stop-color="#C1C592"/>
<stop offset="1" stop-color="white"/>
</linearGradient>
<linearGradient id="paint41_linear_16_512" x1="109.542" y1="2.13442" x2="141.365" y2="21.9954" gradientUnits="userSpaceOnUse">
<stop stop-color="#C1C592"/>
<stop offset="1" stop-color="white"/>
</linearGradient>
</defs>
</svg>
